<?xml version="1.0" encoding="utf-8"?>
<!-- Generator: Adobe Illustrator 16.0.0, SVG Export Plug-In . SVG Version: 6.00 Build 0)  -->
<!DOCTYPE svg PUBLIC "-//W3C//DTD SVG 1.1//EN" "http://www.w3.org/Graphics/SVG/1.1/DTD/svg11.dtd">
<svg version="1.1" id="Layer_1" xmlns="http://www.w3.org/2000/svg" xmlns:xlink="http://www.w3.org/1999/xlink" x="0px" y="0px"
	 width="192.174px" height="181.5px" viewBox="0 0 320.882 183" enable-background="new 0 0 320.882 183" xml:space="preserve">
<g>
	
		<line fill="none" stroke="#BC9131" stroke-width="3" stroke-miterlimit="10" x1="320.882" y1="127.498" x2="228.149" y2="127.498"/>
	
		<line fill="none" stroke="#BC9131" stroke-width="3" stroke-miterlimit="10" x1="221.121" y1="127.498" x2="108.769" y2="127.498"/>
	
		<line fill="none" stroke="#BC9131" stroke-width="3" stroke-miterlimit="10" x1="320.703" y1="109.283" x2="298.734" y2="109.283"/>
	<g transform="translate(0,-952.36223)">
		<path fill="none" stroke="#BC9131" stroke-width="3" stroke-miterlimit="10" d="M234.124,991.688v-9.343h30.481v43.82"/>
		<path fill="none" stroke="#BC9131" stroke-width="3" stroke-miterlimit="10" d="M111.342,1060.588h24.165l51.568-0.001v-40.936
			h28.48v41.994h18.569v-61.729"/>
	</g>
	<line fill="none" stroke="#BC9131" stroke-width="3" stroke-miterlimit="10" x1="195.314" y1="83.594" x2="205.235" y2="83.594"/>
	<g>
		<line fill="none" stroke="#BC9131" stroke-width="3" stroke-miterlimit="10" x1="254.225" y1="69.52" x2="244.305" y2="69.52"/>
	</g>
	
		<line fill="none" stroke="#BC9131" stroke-width="3" stroke-miterlimit="10" x1="195.314" y1="101.418" x2="206.681" y2="101.418"/>
	<line fill="none" stroke="#BC9131" stroke-width="3" stroke-miterlimit="10" x1="242.131" y1="86.498" x2="289.749" y2="86.498"/>
	
		<line fill="none" stroke="#BC9131" stroke-width="3" stroke-miterlimit="10" x1="242.131" y1="101.418" x2="288.296" y2="101.418"/>
	<line fill="none" stroke="#BC9131" stroke-width="3" stroke-miterlimit="10" x1="242.131" y1="52.541" x2="254.225" y2="52.541"/>
	<line fill="none" stroke="#BC9131" stroke-width="3" stroke-miterlimit="10" x1="184.582" y1="161.59" x2="208.294" y2="161.59"/>
	<line fill="none" stroke="#BC9131" stroke-width="3" stroke-miterlimit="10" x1="212.59" y1="161.59" x2="217.066" y2="161.59"/>
	<line fill="none" stroke="#BC9131" stroke-width="3" stroke-miterlimit="10" x1="279.107" y1="1.5" x2="302.819" y2="1.5"/>
	<line fill="none" stroke="#BC9131" stroke-width="3" stroke-miterlimit="10" x1="307.115" y1="1.5" x2="311.592" y2="1.5"/>
	<line fill="none" stroke="#BC9131" stroke-width="3" stroke-miterlimit="10" x1="159.827" y1="34.826" x2="140.351" y2="34.826"/>
	<line fill="none" stroke="#BC9131" stroke-width="3" stroke-miterlimit="10" x1="136.056" y1="34.826" x2="131.579" y2="34.826"/>
	<line fill="none" stroke="#BC9131" stroke-width="3" stroke-miterlimit="10" x1="300.175" y1="89.494" x2="300.175" y2="110.01"/>
	<line fill="none" stroke="#BC9131" stroke-width="3" stroke-miterlimit="10" x1="300.175" y1="80.478" x2="300.175" y2="86.287"/>
	<polyline fill="none" stroke="#BC9131" stroke-width="3" stroke-miterlimit="10" points="263.864,72.973 280.567,72.973 
		280.567,47.805 300.175,47.805 300.175,77.239 	"/>
	<path fill="none" stroke="#BC9131" stroke-width="3" stroke-miterlimit="10" d="M100.361,53.947
		c7.032,13.349,11.206,30.008,11.206,48.074c0,43.895-24.639,79.479-55.034,79.479C26.139,181.5,1.5,145.916,1.5,102.021
		c0-43.896,24.639-79.479,55.033-79.479c12.634,0,24.273,6.148,33.562,16.484"/>
	<path fill="none" stroke="#BC9131" stroke-width="3" stroke-miterlimit="10" d="M93.525,43.175
		c1.593,2.091,3.102,4.313,4.517,6.659"/>
	<path fill="none" stroke="#BC9131" stroke-width="3" stroke-miterlimit="10" d="M29.947,79.289
		C34.87,65.83,45.279,57.066,56.695,57.066c17.085,0,30.934,20.001,30.934,44.674s-13.849,44.674-30.934,44.674
		c-17.083,0-30.933-20.001-30.933-44.674c0-5.536,0.698-10.836,1.972-15.729"/>
	
		<line fill="none" stroke="#BC9131" stroke-width="3" stroke-miterlimit="10" x1="319.243" y1="109.283" x2="319.243" y2="127.439"/>
</g>
<g display="none">
	<g display="inline">
		<g>
			<g>
				<g>
					<g>
						<g>
							<path fill="none" stroke="#BC9131" stroke-width="5" stroke-miterlimit="10" d="M3148.111-949.197
								c-2.666-0.712-5.322-1.517-7.965-2.416c-3.407-1.16-6.792-2.477-10.145-3.953c-62.741-27.65-91.3-101.192-63.66-163.927
								c20.476-46.493,66.163-74.221,113.984-74.221 M3304.024-1079.976c1.762,20.141-1.367,40.981-10.079,60.749
								c-20.487,46.494-66.16,74.209-113.983,74.209c-3.026,0-6.062-0.111-9.101-0.336 M3180.325-1193.714
								c16.721,0,33.703,3.387,49.956,10.55c35.736,15.742,60.386,46.383,69.877,81.436"/>
						</g>
					</g>
				</g>
				<g>
					<path fill="none" stroke="#BC9131" stroke-width="5" stroke-miterlimit="10" d="M3303.243-1053.437l-17.288,13.461
						l-31.185,26.243l-1.392-25.467l-20.238,3.655l-2.259-23.45l-13.917,7.432l-4.018-3.113l-11.982-11.969l-3.811,16.297
						l9.162,9.243l-40.108,38.985l-10.896,1.724l-0.058-21.033l7.841-31.794l-14.273-6.998l-1.449-13.681l18.084-19l13.393,2.495
						l5.377,8.287l19.805,3.495l-14.926-19.463l-15.199-10.035l1.32-5.317l19.87-2.211l-2.18-13.314l22.49-7.515l14.5,13.548
						l32.395,3.627c0,0,14.383-1.078,30.429-2.178"/>
					<path fill="none" stroke="#BC9131" stroke-width="5" stroke-miterlimit="10" d="M3147.599-1189.208l-11.394,8.32l-20.284,15.61
						c-0.543,0.429-0.822,1.115-0.725,1.792l2.342,16.084c0.104,0.656,0.686,1.304,1.145,1.476c0.614,0.258,1.301,0.193,1.845-0.188
						l11.438-8.021l6.256,22.215l-36.2,11.802l-15.321-5.079c-0.706-0.236-1.481-0.029-1.999,0.515l-7.117,7.618
						c-0.439,0.479-0.615,1.143-0.459,1.776l4.334,16.844l-12.655-14.274l-2.103-7.454
						C3082.51-1155.438,3112.88-1179.765,3147.599-1189.208z"/>
					<path fill="none" stroke="#BC9131" stroke-width="5" stroke-miterlimit="10" d="M3083.196-1051.519l-1.462-24.033
						l20.898-19.048l18.596,41.531l-49.535,42.069l0.006-14.475l11.323-25.151
						C3083.157-1050.91,3083.209-1051.212,3083.196-1051.519z"/>
					<path fill="none" stroke="#BC9131" stroke-width="5" stroke-miterlimit="10" d="M3156.527-1147.379l-1.042-32.486
						c22.704-1.28,36.096,2.084,41.098,3.717l-16.375,22.332L3156.527-1147.379z"/>
				</g>
			</g>
		</g>
	</g>
	<g display="inline">
		<g>
			<path fill="none" stroke="#BC9131" stroke-width="5" stroke-miterlimit="10" d="M3007.223-948.177
				c0.487-18.562,8.332-45.583,32.798-84.319"/>
			<path fill="none" stroke="#BC9131" stroke-width="5" stroke-miterlimit="10" d="M3008.421-934.122
				c-0.515-2.397-0.891-5.016-1.082-7.875"/>
			<path fill="none" stroke="#BC9131" stroke-width="5" stroke-miterlimit="10" d="M3324.854-1128.646
				c-0.733,1.562-1.495,3.141-2.285,4.731c-13.596,27.406-34.392,57.027-60.143,85.961c-5.475,6.152-11.175,12.273-17.077,18.336
				c-4.991,5.127-10.126,10.212-15.393,15.237c-66.082,63.045-135.645,100.711-179.315,100.711c-5.928,0-11.378-0.694-16.277-2.111
				c-4.042-1.169-7.708-2.831-10.959-5.004c-0.87-0.582-8.782-5.08-13.221-17.194"/>
			<path fill="none" stroke="#BC9131" stroke-width="5" stroke-miterlimit="10" d="M3331.338-1144.015
				c-0.777,2.089-1.611,4.21-2.502,6.361"/>
			<path fill="none" stroke="#BC9131" stroke-width="5" stroke-miterlimit="10" d="M3219.061-1200.025
				c50.881-27.411,90.828-31.869,109.571-12.216c11.916,12.486,13.774,33.044,5.739,59.297"/>
		</g>
		<g>
			<path fill="none" stroke="#BC9131" stroke-width="5" stroke-miterlimit="10" d="M3016.65-1162.165
				c-6.763-24.38-4.606-43.63,6.872-55.657c31.846-33.379,125.083,5.623,212.271,88.799c40.793,38.921,73.688,81.371,92.615,119.534
				c14.693,29.626,19.724,54.463,14.929,72.194c-0.764,2.825-1.778,5.471-3.041,7.926c-1.56,3.03-22.486,50.411-126.754-10.41"/>
			<path fill="none" stroke="#BC9131" stroke-width="5" stroke-miterlimit="10" d="M3045.864-1100.918
				c-11.563-18.11-20.143-34.979-25.657-50.178"/>
		</g>
	</g>
	<g>
		<g display="inline">
			<g>
				<path fill="none" stroke="#BC9131" stroke-width="5" stroke-miterlimit="10" d="M2998.61-900.828
					c-3.314-4.709-5.665-10.257-6.991-16.481 M2990.402-934.15c0.236-5.019,0.948-10.421,2.125-16.05 M2996.633-965.482
					c1.534-4.716,3.357-9.639,5.428-14.632 M3008.453-994.219c2.162-4.419,4.56-9.012,7.125-13.648"/>
			</g>
			<g>
				<path fill="none" stroke="#BC9131" stroke-width="5" stroke-miterlimit="10" d="M3023.368-1021.23
					c1.305-2.126,2.645-4.266,4.012-6.417"/>
			</g>
		</g>
		<g display="inline">
			<path fill="none" stroke="#BC9131" stroke-width="5" stroke-miterlimit="10" d="M3228.471-1215.811
				c57.148-30.787,102.015-35.794,123.066-13.721c17.99,18.851,15.569,54.081-6.81,99.205
				c-15.271,30.782-38.628,64.051-67.55,96.549c-6.15,6.91-12.551,13.785-19.18,20.594c-5.605,5.759-11.373,11.47-17.289,17.114
				c-74.221,70.81-152.352,113.114-201.4,113.114c-15.664,0-28.36-4.31-37.014-13.386"/>
		</g>
		<g display="inline">
			<g>
				<path fill="none" stroke="#BC9131" stroke-width="5" stroke-miterlimit="10" d="M3228.835-919.733
					c-2.174-1.224-4.364-2.481-6.562-3.778"/>
			</g>
			<g>
				<path fill="none" stroke="#BC9131" stroke-width="5" stroke-miterlimit="10" d="M3317.063-889.023
					c-5.036-0.218-10.439-0.871-16.068-1.939 M3350.45-896.381c-4.784,2.99-10.381,5.109-16.629,6.29 M3285.597-894.75
					c-4.796-1.424-9.789-3.121-14.832-5.035 M3256.398-905.751c-4.564-2.05-9.258-4.303-13.96-6.693"/>
			</g>
		</g>
		<g display="inline">
			<path fill="none" stroke="#BC9131" stroke-width="5" stroke-miterlimit="10" d="M3033.942-1104.496
				c-38.312-60.007-47.46-107.866-25.093-131.303c35.768-37.49,140.488,6.315,238.415,99.735
				c45.817,43.715,82.764,91.394,104.022,134.257c22.379,45.121,24.799,80.352,6.812,99.205"/>
		</g>
	</g>
	<polyline display="inline" fill="none" stroke="#BC9131" stroke-width="5" stroke-miterlimit="10" points="2960.37,-1070.478 
		3004.917,-1070.46 3004.922,-1070.46 	"/>
	
		<line display="inline" fill="none" stroke="#BC9131" stroke-width="5" stroke-miterlimit="10" x1="2940.222" y1="-1070.527" x2="2951.994" y2="-1070.485"/>
	<polyline display="inline" fill="none" stroke="#BC9131" stroke-width="5" stroke-miterlimit="10" points="3331.935,-1259.645 
		3341.089,-1259.627 3341.094,-1259.627 	"/>
	
		<line display="inline" fill="none" stroke="#BC9131" stroke-width="5" stroke-miterlimit="10" x1="3283.198" y1="-1259.695" x2="3323.56" y2="-1259.652"/>
	<polyline display="inline" fill="none" stroke="#BC9131" stroke-width="5" stroke-miterlimit="10" points="3216.556,-889.048 
		3225.71,-889.03 3225.715,-889.03 	"/>
	
		<line display="inline" fill="none" stroke="#BC9131" stroke-width="5" stroke-miterlimit="10" x1="3167.819" y1="-889.098" x2="3208.181" y2="-889.055"/>
</g>
</svg>
